<svg class="plot-d6a7b5" fill="currentColor" font-family="system-ui, sans-serif" font-size="10" text-anchor="middle" width="640" height="300" viewBox="0 0 640 300" xmlns="http://www.w3.org/2000/svg" xmlns:xlink="http://www.w3.org/1999/xlink"><style>.plot-d6a7b5 {
  display: block;
  background: white;
  height: auto;
  height: intrinsic;
  max-width: 100%;
}
.plot-d6a7b5 text,
.plot-d6a7b5 tspan {
  white-space: pre;
}</style><g aria-label="fy-axis tick label" transform="translate(-8.5,0.5)"><g text-anchor="end" transform="translate(0,1)"><text y="0.32em" transform="translate(60,79)">FEMALE</text></g><g text-anchor="end" transform="translate(0,132)"><text y="0.32em" transform="translate(60,79)">MALE</text></g></g><g aria-label="fy-axis label" transform="translate(-56.5,0.5)"><text y="0.71em" transform="translate(60,145.5) rotate(-90)">sex</text></g><g aria-label="x-axis tick" transform="translate(0.5,0)"><g fill="none" stroke="currentColor" transform="translate(0,132)"><path transform="translate(120,138)" d="M0,0L0,6"/><path transform="translate(220,138)" d="M0,0L0,6"/><path transform="translate(320,138)" d="M0,0L0,6"/><path transform="translate(420.00000000000006,138)" d="M0,0L0,6"/><path transform="translate(520,138)" d="M0,0L0,6"/><path transform="translate(620,138)" d="M0,0L0,6"/></g></g><g aria-label="x-axis tick label" transform="translate(0.5,9.5)"><g font-variant="tabular-nums" transform="translate(0,132)"><text y="0.71em" transform="translate(120,138)">35</text><text y="0.71em" transform="translate(220,138)">40</text><text y="0.71em" transform="translate(320,138)">45</text><text y="0.71em" transform="translate(420.00000000000006,138)">50</text><text y="0.71em" transform="translate(520,138)">55</text><text y="0.71em" transform="translate(620,138)">60</text></g></g><g aria-label="x-axis label" text-anchor="end" transform="translate(17.5,27.5)"><text transform="translate(620,270)">culmen_length_mm →</text></g><g aria-label="area"><g fill-opacity="0.1" transform="translate(0,1)"><path fill="#4e79a7" d="M80,124.889C93.333,106.794,106.667,88.699,120,68.074C133.333,47.449,146.667,24.294,160,20C173.333,15.706,186.667,30.274,200,50.593C213.333,70.911,226.667,96.98,240,111.778C253.333,126.576,266.667,130.103,280,133.63L280,138C266.667,138,253.333,138,240,138C226.667,138,213.333,138,200,138C186.667,138,173.333,138,160,138C146.667,138,133.333,138,120,138C106.667,138,93.333,138,80,138Z"/><path fill="#f28e2c" d="M240,133.63C253.282,126.648,266.564,119.667,280,116.148C293.436,112.629,307.026,112.573,320,103.037C332.974,93.501,345.333,74.484,360,81.185C374.667,87.886,391.641,120.306,400,129.259C408.359,138.213,408.103,123.701,440,120.519C471.897,117.336,535.949,125.483,600,133.63L600,138C535.949,138,471.897,138,440,138C408.103,138,408.359,138,400,138C391.641,138,374.667,138,360,138C345.333,138,332.974,138,320,138C307.026,138,293.436,138,280,138C266.564,138,253.282,138,240,138Z"/><path fill="#e15759" d="M240,129.259C253.333,111.032,266.667,92.805,280,81.185C293.333,69.566,306.667,64.554,320,59.333C333.333,54.113,346.667,48.683,360,59.333C373.333,69.984,386.667,96.715,400,111.778C413.333,126.841,426.667,130.235,440,133.63L440,138C426.667,138,413.333,138,400,138C386.667,138,373.333,138,360,138C346.667,138,333.333,138,320,138C306.667,138,293.333,138,280,138C266.667,138,253.333,138,240,138Z"/></g><g fill-opacity="0.1" transform="translate(0,132)"><path fill="#4e79a7" d="M120,129.259C133.333,116.74,146.667,104.221,160,94.296C173.333,84.371,186.667,77.041,200,59.333C213.333,41.626,226.667,13.542,240,20C253.333,26.458,266.667,67.46,280,89.926C293.333,112.392,306.667,116.324,320,120.519C333.333,124.713,346.667,129.171,360,133.63L360,138C346.667,138,333.333,138,320,138C306.667,138,293.333,138,280,138C266.667,138,253.333,138,240,138C226.667,138,213.333,138,200,138C186.667,138,173.333,138,160,138C146.667,138,133.333,138,120,138Z"/><path fill="#f28e2c" d="M400,103.037C413.333,82.059,426.667,61.081,440,63.704C453.333,66.326,466.667,92.548,480,107.407C493.333,122.267,506.667,125.763,520,129.259L520,138C506.667,138,493.333,138,480,138C466.667,138,453.333,138,440,138C426.667,138,413.333,138,400,138Z"/><path fill="#e15759" d="M320,116.148C333.316,112.431,346.632,108.715,360,94.296C373.368,79.878,386.786,54.758,400,46.222C413.214,37.687,426.222,45.737,440,63.704C453.778,81.671,468.325,109.555,480,120.519C491.675,131.482,500.479,125.524,520,124.889C539.521,124.254,569.761,128.942,600,133.63L600,138C569.761,138,539.521,138,520,138C500.479,138,491.675,138,480,138C468.325,138,453.778,138,440,138C426.222,138,413.214,138,400,138C386.786,138,373.368,138,360,138C346.632,138,333.316,138,320,138Z"/></g></g><g aria-label="rule" transform="translate(0,0.5)"><g stroke="currentColor" transform="translate(0,1)"><line x1="60" x2="620" y1="138" y2="138"/></g><g stroke="currentColor" transform="translate(0,132)"><line x1="60" x2="620" y1="138" y2="138"/></g></g><g aria-label="line" transform="translate(0.5,0.5)"><g fill="none" stroke-width="1.5" stroke-linejoin="round" stroke-linecap="round" transform="translate(0,1)"><path stroke="#4e79a7" d="M80,124.889C93.333,106.794,106.667,88.699,120,68.074C133.333,47.449,146.667,24.294,160,20C173.333,15.706,186.667,30.274,200,50.593C213.333,70.911,226.667,96.98,240,111.778C253.333,126.576,266.667,130.103,280,133.63"/><path stroke="#f28e2c" d="M240,133.63C253.282,126.648,266.564,119.667,280,116.148C293.436,112.629,307.026,112.573,320,103.037C332.974,93.501,345.333,74.484,360,81.185C374.667,87.886,391.641,120.306,400,129.259C408.359,138.213,408.103,123.701,440,120.519C471.897,117.336,535.949,125.483,600,133.63"/><path stroke="#e15759" d="M240,129.259C253.333,111.032,266.667,92.805,280,81.185C293.333,69.566,306.667,64.554,320,59.333C333.333,54.113,346.667,48.683,360,59.333C373.333,69.984,386.667,96.715,400,111.778C413.333,126.841,426.667,130.235,440,133.63"/></g><g fill="none" stroke-width="1.5" stroke-linejoin="round" stroke-linecap="round" transform="translate(0,132)"><path stroke="#4e79a7" d="M120,129.259C133.333,116.74,146.667,104.221,160,94.296C173.333,84.371,186.667,77.041,200,59.333C213.333,41.626,226.667,13.542,240,20C253.333,26.458,266.667,67.46,280,89.926C293.333,112.392,306.667,116.324,320,120.519C333.333,124.713,346.667,129.171,360,133.63"/><path stroke="#f28e2c" d="M400,103.037C413.333,82.059,426.667,61.081,440,63.704C453.333,66.326,466.667,92.548,480,107.407C493.333,122.267,506.667,125.763,520,129.259"/><path stroke="#e15759" d="M320,116.148C333.316,112.431,346.632,108.715,360,94.296C373.368,79.878,386.786,54.758,400,46.222C413.214,37.687,426.222,45.737,440,63.704C453.778,81.671,468.325,109.555,480,120.519C491.675,131.482,500.479,125.524,520,124.889C539.521,124.254,569.761,128.942,600,133.63"/></g></g></svg>